<svg width="106" height="99" viewBox="0 0 106 99" fill="none" xmlns="http://www.w3.org/2000/svg">
<g style="mix-blend-mode:multiply">
<path d="M105.242 8.52183C105.242 8.52183 100.534 3.91787 91.0955 1.79377C85.0348 0.543971 78.8299 0.142517 72.6587 0.600931C64.6406 1.12608 56.7257 2.6985 49.1158 5.27813C32.6252 10.9075 18.2484 22.6162 10.5158 33.7389C2.78325 44.8617 0.502197 54.0173 0.502197 54.0173C0.502197 54.0173 4.9492 46.8393 15.7476 39.1591C27.5504 30.7673 46.5627 22.8883 64.8739 16.788C73.297 13.9943 80.8621 11.64 86.931 9.74606C90.8113 8.41621 94.7578 7.28813 98.7548 6.36634C99.9302 6.12535 101.148 6.19765 102.287 6.57597C103.426 6.95429 104.445 7.62534 105.242 8.52183Z" fill="#5A43FE" fill-opacity="0.56"/>
</g>
<g style="mix-blend-mode:multiply">
<path d="M75.0131 83.0954C92.7383 69.2208 95.0717 57.9201 92.2151 52.9814C90.4049 49.8423 86.5962 47.6763 81.4063 45.7406C74.4721 43.3047 67.3103 41.573 60.0293 40.5716C51.5362 39.2347 42.9222 38.8312 34.3413 39.3683C27.3447 39.772 20.4638 41.3349 13.9793 43.9932C9.97624 45.7286 6.30756 48.1508 3.13906 51.1502C1.98505 52.2252 0.934117 53.4057 0 54.6764C0.654553 58.2903 1.70732 61.8206 3.13906 65.2028C6.377 73.2641 10.681 80.8549 15.936 87.7726C18.2815 90.9055 21.1569 93.6039 24.4324 95.7458C27.7056 97.7582 31.4524 98.87 35.2935 98.9686C39.4789 99.1465 44.8467 98.3617 51.3864 96.0911C59.9281 93.0992 67.9126 88.7074 75.0131 83.0954Z" fill="#BCB4F1"/>
</g>
<g style="mix-blend-mode:multiply">
<path d="M100.377 49.225C103.725 40.3624 104.175 34.0633 103.704 30.0453C103.233 26.0273 101.611 23.8614 99.1524 22.5116C96.2644 20.9734 92.079 20.1887 86.5124 19.7597C78.9495 19.2372 71.3542 19.4298 63.8275 20.3351C54.5829 21.3604 45.4906 23.4675 36.7374 26.6133C28.9937 29.4394 21.6985 33.3689 15.0779 38.2801C4.41554 46.358 0.0522461 54.666 0.0522461 54.666L1.5276 55.6287C2.66813 56.3716 4.5411 57.6272 7.10467 59.4165C10.0763 61.5092 13.9164 64.2401 18.5204 67.3373C23.8503 71.0313 29.3876 74.4166 35.1051 77.4765C40.8112 80.5972 46.9729 82.8005 53.364 84.0058C59.1601 84.9843 65.1132 84.3695 70.5869 82.227C81.2807 77.9892 93.366 67.735 100.377 49.225Z" fill="#E1DDFE"/>
</g>
<g style="mix-blend-mode:multiply">
<path d="M105.148 18.4202C104.866 13.6802 104.238 11.2422 103.359 9.91336C102.48 8.5845 100.952 7.72649 98.4619 6.86848C94.1729 5.50678 89.7135 4.75649 85.2151 4.63974C77.4791 4.38997 69.7468 5.23543 62.2476 7.15099C44.0306 11.6922 25.7926 23.066 14.7536 34.3562C4.24823 45.1232 0.156982 54.5508 0.156982 54.5508C0.898462 54.1562 1.68091 53.8439 2.49035 53.6196C5.24824 52.8784 8.10147 52.5539 10.9554 52.6569C16.6957 52.9037 22.4102 53.5716 28.0528 54.6554C35.44 55.9215 43.6539 57.5957 52.1084 58.6421C60.563 59.6884 68.6303 60.0232 75.9548 58.7258C82.4054 57.7181 88.4484 54.9357 93.408 50.6898C97.8496 46.6372 101.154 41.4933 102.993 35.7688C104.799 30.1736 105.53 24.2873 105.148 18.4202Z" fill="#7462F7"/>
</g>
</svg>
